<svg width="22" height="22" viewBox="0 0 22 22" fill="none" xmlns="http://www.w3.org/2000/svg">
<path fill-rule="evenodd" clip-rule="evenodd" d="M19 1H3C1.89543 1 1 1.89543 1 3V19C1 20.1046 1.89543 21 3 21H19C20.1046 21 21 20.1046 21 19V3C21 1.89543 20.1046 1 19 1ZM3 0C1.34315 0 0 1.34315 0 3V19C0 20.6569 1.34315 22 3 22H19C20.6569 22 22 20.6569 22 19V3C22 1.34315 20.6569 0 19 0H3Z" fill="#9698D6"/>
<path fill-rule="evenodd" clip-rule="evenodd" d="M4.67645 11.0237L11 12.4289L17.3235 11.0237V18.6176H4.67645V11.0237ZM5.67645 12.2703V17.6176H16.3235V12.2703L11 13.4533L5.67645 12.2703Z" fill="#9698D6"/>
<path fill-rule="evenodd" clip-rule="evenodd" d="M11 11.9411C12.9492 11.9411 14.5294 10.361 14.5294 8.41174C14.5294 6.4625 12.9492 4.88232 11 4.88232C9.05075 4.88232 7.47058 6.4625 7.47058 8.41174C7.47058 10.361 9.05075 11.9411 11 11.9411ZM11 12.9411C13.5015 12.9411 15.5294 10.9133 15.5294 8.41174C15.5294 5.91021 13.5015 3.88232 11 3.88232C8.49847 3.88232 6.47058 5.91021 6.47058 8.41174C6.47058 10.9133 8.49847 12.9411 11 12.9411Z" fill="#9698D6"/>
</svg>
