<svg width="22" height="22" viewBox="0 0 22 22" fill="none" xmlns="http://www.w3.org/2000/svg">
<path fill-rule="evenodd" clip-rule="evenodd" d="M6.5968 21.2903V6.03223H7.5968V21.2903H6.5968Z" fill="#9698D6"/>
<path fill-rule="evenodd" clip-rule="evenodd" d="M19 1H3C1.89543 1 1 1.89543 1 3V19C1 20.1046 1.89543 21 3 21H19C20.1046 21 21 20.1046 21 19V3C21 1.89543 20.1046 1 19 1ZM3 0C1.34315 0 0 1.34315 0 3V19C0 20.6569 1.34315 22 3 22H19C20.6569 22 22 20.6569 22 19V3C22 1.34315 20.6569 0 19 0H3Z" fill="#9698D6"/>
<path fill-rule="evenodd" clip-rule="evenodd" d="M21.2903 6.53223H0.354858V5.53223H21.2903V6.53223Z" fill="#9698D6"/>
</svg>
