<svg width="22" height="22" viewBox="0 0 22 22" fill="none" xmlns="http://www.w3.org/2000/svg">
<path fill-rule="evenodd" clip-rule="evenodd" d="M15.5294 8.91187H12.2941V7.91187H15.5294V8.91187ZM7.76472 10.853H5.82355V9.85304H7.76472V10.853ZM15.5294 12.1472H12.2941V11.1472H15.5294V12.1472ZM7.76472 14.7354H5.82355V13.7354H7.76472V14.7354ZM15.5294 14.7354H12.2941V13.7354H15.5294V14.7354Z" fill="#9698D6"/>
<path fill-rule="evenodd" clip-rule="evenodd" d="M3.3823 6.61768H10.8529V16.3236H20.7058V17.3236H1.29407V16.3236H3.3823V6.61768ZM4.3823 16.3236H9.85289V7.61768H4.3823V16.3236Z" fill="#9698D6"/>
<path fill-rule="evenodd" clip-rule="evenodd" d="M9.85297 4.67651H18.6177V16.8236H17.6177V5.67651H10.853V7.62853H9.85297V4.67651Z" fill="#9698D6"/>
<path fill-rule="evenodd" clip-rule="evenodd" d="M19 1H3C1.89543 1 1 1.89543 1 3V19C1 20.1046 1.89543 21 3 21H19C20.1046 21 21 20.1046 21 19V3C21 1.89543 20.1046 1 19 1ZM3 0C1.34315 0 0 1.34315 0 3V19C0 20.6569 1.34315 22 3 22H19C20.6569 22 22 20.6569 22 19V3C22 1.34315 20.6569 0 19 0H3Z" fill="#9698D6"/>
</svg>
